Coordinates
version=1
nRows=8
nColumns=63
inDegrees=yes

Units are S.I. units (second, meters, Newtons, ...)
If the header above contains a line with 'inDegrees', this indicates whether rotational values are in degrees (yes) or radians (no).

endheader
time	pelvis_tilt	pelvis_list	pelvis_rotation	pelvis_tx	pelvis_ty	pelvis_tz	hip_flexion_r	hip_adduction_r	hip_rotation_r	knee_angle_r	knee_angle_r_beta	ankle_angle_r	subtalar_angle_r	mtp_angle_r	hip_flexion_l	hip_adduction_l	hip_rotation_l	knee_angle_l	knee_angle_l_beta	ankle_angle_l	subtalar_angle_l	mtp_angle_l	L5_S1_Flex_Ext	L5_S1_Lat_Bending	L5_S1_axial_rotation	L4_L5_Flex_Ext	L4_L5_Lat_Bending	L4_L5_axial_rotation	L3_L4_Flex_Ext	L3_L4_Lat_Bending	L3_L4_axial_rotation	L2_L3_Flex_Ext	L2_L3_Lat_Bending	L2_L3_axial_rotation	L1_L2_Flex_Ext	L1_L2_Lat_Bending	L1_L2_axial_rotation	L1_T12_Flex_Ext	L1_T12_Lat_Bending	L1_T12_axial_rotation	Abs_r3	Abs_r2	Abs_r1	Abs_t1	Abs_t2	neck_flexion	neck_bending	neck_rotation	arm_flex_r	arm_add_r	arm_rot_r	elbow_flex_r	pro_sup_r	wrist_flex_r	wrist_dev_r	arm_flex_l	arm_add_l	arm_rot_l	elbow_flex_l	pro_sup_l	wrist_flex_l	wrist_dev_l
      3.76666667	    -15.86891999	     17.36323293	    -65.11704298	     -0.04282868	      0.96824078	     -0.81664218	     40.35140290	      5.40504914	    -30.26474815	     20.39160416	      0.35590063	     -7.52027221	    -14.62179484	      0.00000000	     26.78274459	     -6.83069073	     16.45293514	     41.74945279	      0.72866541	     21.90658838	    -14.76240344	      0.00000000	     -0.02994870	     -0.92537333	     -1.07832488	     -0.05561773	     -1.23074653	     -1.14572019	     -0.04920272	     -2.24995272	     -1.14572019	     -0.03422837	     -2.24995272	     -0.94353427	     -0.02781036	     -1.88702130	     -0.87613897	     -0.01711269	     -1.43340329	     -0.80874366	     -0.21392058	    -10.46800820	     -5.99731950	      0.00000000	      0.00000000	    -16.86297519	      8.76707826	     -7.78938506	    -33.95123201	    -34.26556787	    -79.93193909	    120.24617422	     89.99559364	      0.00000000	      0.00000000	     -7.66475565	    -48.73780042	    -17.58987660	     57.94602507	     89.99559364	      0.00000000	      0.00000000
      3.78333333	    -14.56839272	     16.11821474	    -66.13930882	     -0.03397894	      0.96615435	     -0.80121341	     38.34211431	      5.04416470	    -29.84656746	     23.26818144	      0.40610638	     -5.19125122	    -15.39488864	      0.00000000	     23.31480586	     -6.37390052	     15.53431640	     41.51586548	      0.72458854	     23.38631086	    -15.12631217	      0.00000000	     -0.02829690	     -0.70604772	     -1.31474580	     -0.05255017	     -0.93904347	     -1.39691741	     -0.04648897	     -1.71668444	     -1.39691741	     -0.03234052	     -1.71668444	     -1.15040258	     -0.02627650	     -1.43977252	     -1.06823096	     -0.01616885	     -1.09366793	     -0.98605935	     -0.20212190	     -7.98695307	     -7.31222172	      0.00000000	      0.00000000	    -17.67276824	      6.34172453	     -5.53973742	    -31.93371955	    -36.97246230	    -77.13209077	    118.17437035	     89.99559364	      0.00000000	      0.00000000	    -14.52135875	    -46.90974555	    -24.04001617	     58.93714637	     89.99559364	      0.00000000	      0.00000000
      3.80000000	    -13.17081897	     14.80859338	    -67.85769596	     -0.02630494	      0.96507585	     -0.78571087	     36.10932847	      4.91702990	    -28.58253952	     25.44458432	      0.44409177	     -2.95715890	    -15.21561274	      0.00000000	     19.59718200	     -5.96510814	     14.20744378	     41.22953454	      0.71959113	     24.56094564	    -15.18274061	      0.00000000	     -0.02780902	     -0.49461989	     -1.41008356	     -0.05164412	     -0.65784445	     -1.49821379	     -0.04568743	     -1.20261880	     -1.49821379	     -0.03178292	     -1.20261880	     -1.23382312	     -0.02582345	     -1.00862888	     -1.14569290	     -0.01589007	     -0.76616621	     -1.05756267	     -0.19863702	     -5.59523913	     -7.84246176	      0.00000000	      0.00000000	    -18.47964067	      4.47812824	     -3.77579142	    -29.41014353	    -39.65044586	    -74.63717635	    115.86755549	     89.99559364	      0.00000000	      0.00000000	    -19.63281149	    -45.39182567	    -28.81568451	     58.62602942	     89.99559364	      0.00000000	      0.00000000
      3.81666667	    -11.45964634	     13.57525265	    -70.18119260	     -0.02039300	      0.96517365	     -0.77050117	     33.91760298	      4.61762703	    -26.46445440	     27.34303042	      0.47722591	     -0.65779999	    -14.25586709	      0.00000000	     15.91335135	     -5.22331948	     12.49104729	     41.02206091	      0.71597003	     25.39195116	    -14.81367412	      0.00000000	     -0.02561987	     -0.33410795	     -1.19654736	     -0.04757867	     -0.44436357	     -1.27133157	     -0.04209089	     -0.81235006	     -1.27133157	     -0.02928095	     -0.81235006	     -1.04697894	     -0.02379062	     -0.68131293	     -0.97219473	     -0.01463920	     -0.51753321	     -0.89741052	     -0.18300020	     -3.77949592	     -6.65483743	      0.00000000	      0.00000000	    -19.59676681	      3.02742682	     -2.54704429	    -27.87506256	    -41.29603896	    -73.55876079	    113.62717296	     89.99559364	      0.00000000	      0.00000000	    -22.08830997	    -45.29925271	    -30.60005192	     57.33357932	     89.99559364	      0.00000000	      0.00000000
      3.83333333	     -9.40056432	     12.58333372	    -72.69890588	     -0.01625907	      0.96632170	     -0.75607904	     32.05670896	      3.83011396	    -23.90030757	     29.19636625	      0.50957272	      1.52915765	    -13.01239442	      0.00000000	     12.84308768	     -3.91502606	     10.68912089	     41.24436717	      0.71985001	     25.76283544	    -13.79963179	      0.00000000	     -0.02557630	     -0.24565722	     -0.64134633	     -0.04749774	     -0.32672410	     -0.68143048	     -0.04201930	     -0.59729096	     -0.68143048	     -0.02923115	     -0.59729096	     -0.56117804	     -0.02375015	     -0.50094420	     -0.52109389	     -0.01461430	     -0.38052303	     -0.48100975	     -0.18268893	     -2.77892357	     -3.56697589	      0.00000000	      0.00000000	    -20.72566375	      2.89751575	     -2.95088588	    -28.66076512	    -41.24499651	    -74.77882651	    111.78562817	     89.99559364	      0.00000000	      0.00000000	    -21.74419562	    -46.88429029	    -29.85585991	     55.83919840	     89.99559364	      0.00000000	      0.00000000
      3.85000000	     -7.18815677	     12.00309158	    -74.88955700	     -0.01308317	      0.96804221	     -0.74305533	     30.71737583	      2.53133911	    -21.42400192	     30.81389562	      0.53780393	      3.37789277	    -12.05200680	      0.00000000	     11.09541909	     -2.23544199	      8.89509913	     42.35645092	      0.73925953	     25.82568888	    -11.75871856	      0.00000000	     -0.02222587	     -0.21174815	      0.17694147	     -0.04127567	     -0.28162504	      0.18800031	     -0.03651489	     -0.51484445	      0.18800031	     -0.02540195	     -0.51484445	      0.15482379	     -0.02063895	     -0.43179683	      0.14376495	     -0.01269986	     -0.32799788	      0.13270610	     -0.15875718	     -2.39533743	      0.98409539	      0.00000000	      0.00000000	    -21.59877246	      4.79914718	     -6.16047924	    -31.84034668	    -39.47601863	    -78.34427561	    110.23297666	     89.99559364	      0.00000000	      0.00000000	    -18.35068909	    -50.05864739	    -25.97860474	     54.33122488	     89.99559364	      0.00000000	      0.00000000
      3.86666667	     -4.95780037	     11.69923021	    -77.06500194	     -0.01018635	      0.97012413	     -0.73049617	     29.55866694	      1.08309496	    -19.17441449	     31.86509423	      0.55615081	      5.08155404	    -11.01464752	      0.00000000	     10.55145584	     -0.35323078	      7.13244097	     44.43021608	      0.77545356	     25.21792090	    -10.05314671	      0.00000000	     -0.01927817	     -0.19457490	      1.12765635	     -0.03580150	     -0.25878462	      1.19813487	     -0.03167211	     -0.47308941	      1.19813487	     -0.02203303	     -0.47308941	      0.98669931	     -0.01790171	     -0.39677714	      0.91622078	     -0.01101555	     -0.30139652	      0.84574226	     -0.13770207	     -2.20107020	      6.27168632	      0.00000000	      0.00000000	    -21.97794493	      7.50867422	     -9.65216452	    -35.79239459	    -37.00043260	    -82.21098656	    108.78841374	     89.99559364	      0.00000000	      0.00000000	    -12.49778723	    -53.54012401	    -20.24921716	     52.65592862	     89.99559364	      0.00000000	      0.00000000
      3.88333333	     -2.91662278	     11.35104224	    -79.79769982	     -0.00701478	      0.97250531	     -0.71665119	     27.99792642	     -0.15072193	    -17.58035991	     32.02046891	      0.55886261	      6.99524632	     -9.02040459	      0.00000000	     10.62940156	      1.32886269	      4.84873119	     47.11179061	      0.82225586	     24.09773515	     -8.97830114	      0.00000000	     -0.01370338	     -0.13880431	      2.13790188	     -0.02544854	     -0.18460973	      2.27152075	     -0.02251328	     -0.33748880	      2.27152075	     -0.01566159	     -0.33748880	      1.87066415	     -0.01272496	     -0.28304975	      1.73704528	     -0.00783011	     -0.21500788	      1.60342641	     -0.09788184	     -1.57018213	     11.89036889	      0.00000000	      0.00000000	    -22.18971497	     10.19080525	    -12.74895164	    -39.57928436	    -35.07890391	    -84.96577475	    107.45460590	     89.99559364	      0.00000000	      0.00000000	     -4.73532189	    -56.53558660	    -12.63113893	     49.99896842	     89.99559364	      0.00000000	      0.00000000
